<?xml version="1.0" encoding="UTF-8"?>
<svg xmlns="http://www.w3.org/2000/svg" xmlns:xlink="http://www.w3.org/1999/xlink" width="1260px" height="932px" viewBox="0 0 1260 932" version="1.1">
<g id="surface1">
<path style=" stroke:none;fill-rule:nonzero;fill:rgb(95.686275%,95.686275%,95.686275%);fill-opacity:1;" d="M 556.5 572.402344 L 704.550781 572.402344 L 704.550781 721.523438 L 556.5 721.523438 Z M 556.5 572.402344 "/>
<path style=" stroke:none;fill-rule:nonzero;fill:rgb(95.686275%,95.686275%,95.686275%);fill-opacity:1;" d="M 556.5 497.84375 L 704.550781 497.84375 L 704.550781 646.964844 L 556.5 646.964844 Z M 556.5 497.84375 "/>
<path style=" stroke:none;fill-rule:nonzero;fill:rgb(81.568627%,92.941176%,100%);fill-opacity:1;" d="M 1037.402344 616.671875 L 222.597656 616.671875 C 206.851562 616.671875 195.300781 607.351562 195.300781 596.480469 L 195.300781 206.59375 C 195.300781 194.941406 207.902344 186.398438 222.597656 186.398438 L 1038.453125 186.398438 C 1054.199219 186.398438 1065.75 195.71875 1065.75 206.59375 L 1065.75 595.703125 C 1065.75 607.351562 1053.148438 616.671875 1037.402344 616.671875 Z M 1037.402344 616.671875 "/>
<path style=" stroke:none;fill-rule:nonzero;fill:rgb(95.686275%,95.686275%,95.686275%);fill-opacity:1;" d="M 194.25 591.042969 C 194.25 605.023438 210 616.671875 228.898438 616.671875 L 1031.101562 616.671875 C 1050 616.671875 1065.75 605.023438 1065.75 591.042969 L 1065.75 527.355469 L 194.25 527.355469 Z M 194.25 591.042969 "/>
<path style=" stroke:none;fill-rule:nonzero;fill:rgb(90.196078%,90.980392%,90.196078%);fill-opacity:1;" d="M 799.050781 696.671875 L 460.949219 696.671875 C 453.597656 696.671875 447.300781 701.328125 447.300781 706.765625 L 447.300781 735.503906 C 447.300781 740.941406 453.597656 745.601562 460.949219 745.601562 L 798 745.601562 C 805.351562 745.601562 811.648438 740.941406 811.648438 735.503906 L 811.648438 706.765625 C 812.699219 701.328125 806.402344 696.671875 799.050781 696.671875 Z M 799.050781 696.671875 "/>
<path style=" stroke:none;fill-rule:nonzero;fill:rgb(90.196078%,90.980392%,90.196078%);fill-opacity:1;" d="M 556.5 616.671875 L 704.550781 616.671875 L 704.550781 635.3125 L 556.5 635.3125 Z M 556.5 616.671875 "/>
<path style=" stroke:none;fill-rule:nonzero;fill:rgb(100%,93.72549%,82.745098%);fill-opacity:1;" d="M 515.550781 296.6875 L 744.449219 296.6875 L 744.449219 455.125 L 515.550781 455.125 Z M 515.550781 296.6875 "/>
<path style=" stroke:none;fill-rule:nonzero;fill:rgb(100%,89.803922%,57.647059%);fill-opacity:1;" d="M 642.601562 360.375 L 616.347656 360.375 C 607.953125 360.375 600.601562 354.9375 600.601562 348.722656 L 600.601562 296.6875 L 659.398438 296.6875 L 659.398438 348.722656 C 659.398438 354.9375 652.046875 360.375 642.601562 360.375 Z M 642.601562 360.375 "/>
<path style=" stroke:none;fill-rule:nonzero;fill:rgb(100%,78.039216%,55.294118%);fill-opacity:1;" d="M 584.847656 360.375 L 558.601562 360.375 C 550.199219 360.375 542.847656 354.9375 542.847656 348.722656 L 542.847656 296.6875 L 601.652344 296.6875 L 601.652344 348.722656 C 600.601562 354.9375 593.25 360.375 584.847656 360.375 Z M 584.847656 360.375 "/>
<path style=" stroke:none;fill-rule:nonzero;fill:rgb(100%,89.803922%,57.647059%);fill-opacity:1;" d="M 526.050781 360.375 L 499.796875 360.375 C 491.402344 360.375 484.050781 354.9375 484.050781 348.722656 L 484.050781 296.6875 L 542.847656 296.6875 L 542.847656 348.722656 C 542.847656 354.9375 535.503906 360.375 526.050781 360.375 Z M 526.050781 360.375 "/>
<path style=" stroke:none;fill-rule:nonzero;fill:rgb(100%,78.039216%,55.294118%);fill-opacity:1;" d="M 701.398438 360.375 L 675.152344 360.375 C 666.75 360.375 659.398438 354.9375 659.398438 348.722656 L 659.398438 296.6875 L 718.199219 296.6875 L 718.199219 348.722656 C 717.152344 354.9375 709.800781 360.375 701.398438 360.375 Z M 701.398438 360.375 "/>
<path style=" stroke:none;fill-rule:nonzero;fill:rgb(100%,89.803922%,57.647059%);fill-opacity:1;" d="M 760.203125 360.375 L 733.949219 360.375 C 725.546875 360.375 718.199219 354.9375 718.199219 348.722656 L 718.199219 296.6875 L 777 296.6875 L 777 348.722656 C 774.898438 354.9375 768.597656 360.375 760.203125 360.375 Z M 760.203125 360.375 "/>
<path style=" stroke:none;fill-rule:nonzero;fill:rgb(61.176471%,81.960784%,100%);fill-opacity:1;" d="M 559.652344 392.992188 L 615.296875 392.992188 L 615.296875 455.902344 L 559.652344 455.902344 Z M 559.652344 392.992188 "/>
<path style=" stroke:none;fill-rule:nonzero;fill:rgb(61.176471%,81.960784%,100%);fill-opacity:1;" d="M 657.296875 417.847656 L 676.199219 417.847656 L 676.199219 436.488281 L 657.296875 436.488281 Z M 657.296875 417.847656 "/>
<path style=" stroke:none;fill-rule:nonzero;fill:rgb(61.176471%,81.960784%,100%);fill-opacity:1;" d="M 683.550781 417.847656 L 702.449219 417.847656 L 702.449219 436.488281 L 683.550781 436.488281 Z M 683.550781 417.847656 "/>
<path style=" stroke:none;fill-rule:nonzero;fill:rgb(61.176471%,81.960784%,100%);fill-opacity:1;" d="M 657.296875 392.992188 L 676.199219 392.992188 L 676.199219 411.632812 L 657.296875 411.632812 Z M 657.296875 392.992188 "/>
<path style=" stroke:none;fill-rule:nonzero;fill:rgb(61.176471%,81.960784%,100%);fill-opacity:1;" d="M 683.550781 392.992188 L 702.449219 392.992188 L 702.449219 411.632812 L 683.550781 411.632812 Z M 683.550781 392.992188 "/>
</g>
</svg>
